# xmcd
#
# Track frame offsets: 
#        150
#        4811
#        21716
#        30242
#        40149
#        47602
#        59013
#        71501
#        76451
#        87734
#        97852
#        118802
#        130146
#        139835
#        149255
#        171040
#
# Disc length: 2446 seconds
#
# Revision: 0
# Processed by: cddbd v1.5.2PL0 Copyright (c) Steve Scherf et al.
# Submitted via: ExactAudioCopy v0.99pb3
#
DISCID=de098c10
DTITLE=Peter Lang - Testament
DYEAR=2008
DGENRE=Blues
TTITLE0=Freight Train
TTITLE1=Brownsville Road
TTITLE2=Colored Aristocrasy
TTITLE3=I'm Satisfied
TTITLE4=Guabi Guabi
TTITLE5=Living in the Country
TTITLE6=Delia
TTITLE7=Buckdancer's Choice
TTITLE8=Can't Feel at Home in This World Anymore
TTITLE9=Guitar Rag
TTITLE10=Nobody's Business but My Own
TTITLE11=That'll Never Happen No More
TTITLE12=Keep Your Hands Off Her
TTITLE13=Payday
TTITLE14=Stackolee
TTITLE15=Jimmy Bell
EXTD=
EXTT0=
EXTT1=
EXTT2=
EXTT3=
EXTT4=
EXTT5=
EXTT6=
EXTT7=
EXTT8=
EXTT9=
EXTT10=
EXTT11=
EXTT12=
EXTT13=
EXTT14=
EXTT15=
PLAYORDER=
